<svg width="25" height="25" viewBox="0 0 25 25" fill="none" xmlns="http://www.w3.org/2000/svg">
<g clip-path="url(#clip0_73_24)">
<path fill-rule="evenodd" clip-rule="evenodd" d="M12.4601 0.378955C14.7136 0.404671 16.7496 0.958545 18.5678 2.04058C20.3643 3.10098 21.8587 4.60454 22.9081 6.40747C23.9835 8.2366 24.5341 10.2848 24.5597 12.5521C24.4959 15.6544 23.5174 18.3039 21.6243 20.5009C19.7313 22.6979 17.3067 24.057 14.7968 24.5781V15.8805H17.1697L17.7064 12.4625H14.1132V10.2239C14.0933 9.75978 14.2401 9.30387 14.527 8.93857C14.8143 8.57227 15.3204 8.37974 16.0451 8.36099H18.2148V5.36694C18.1836 5.35692 17.8882 5.3173 17.3286 5.2481C16.6938 5.17382 16.0555 5.13415 15.4165 5.12925C13.9701 5.13592 12.8262 5.54393 11.9848 6.35327C11.1433 7.16235 10.7135 8.33293 10.6953 9.86499V12.4625H7.9609V15.8805H10.6953V24.5781C7.61348 24.0571 5.18892 22.6979 3.29586 20.501C1.40279 18.304 0.424371 15.6543 0.360504 12.5521C0.386058 10.2847 0.936578 8.23651 2.01207 6.40747C3.06151 4.60452 4.55594 3.10095 6.35245 2.04053C8.17061 0.958724 10.2065 0.404899 12.4601 0.378955Z" fill="white"/>
</g>
<defs>
<clipPath id="clip0_73_24">
<rect width="25" height="25" fill="white"/>
</clipPath>
</defs>
</svg>
