<svg width="25" height="25" viewBox="0 0 25 25" fill="none" xmlns="http://www.w3.org/2000/svg">
<g clip-path="url(#clip0_73_36)">
<path d="M14.8926 12.5C14.8926 13.8214 13.8214 14.8926 12.5 14.8926C11.1786 14.8926 10.1074 13.8214 10.1074 12.5C10.1074 11.1786 11.1786 10.1074 12.5 10.1074C13.8214 10.1074 14.8926 11.1786 14.8926 12.5Z" fill="white"/>
<path d="M18.0954 8.26694C17.9803 7.95517 17.7969 7.67314 17.5585 7.4416C17.327 7.20317 17.0449 7.0197 16.7331 6.90469C16.4802 6.80649 16.1003 6.68955 15.4005 6.65771C14.6434 6.62319 14.4165 6.61572 12.5 6.61572C10.5833 6.61572 10.3563 6.623 9.5995 6.65752C8.8997 6.68955 8.51952 6.80645 8.26683 6.90469C7.95501 7.01965 7.67297 7.20313 7.44149 7.4416C7.20306 7.67315 7.01953 7.95517 6.90438 8.26694C6.80619 8.51987 6.68925 8.9 6.65741 9.5998C6.62289 10.3566 6.61542 10.5836 6.61542 12.5003C6.61542 14.4168 6.62289 14.6437 6.65741 15.4008C6.68925 16.1006 6.80619 16.4806 6.90438 16.7334C7.01946 17.0452 7.20293 17.3272 7.4413 17.5588C7.6728 17.7972 7.95484 17.9807 8.26664 18.0957C8.51957 18.1941 8.8997 18.311 9.5995 18.3429C10.3563 18.3774 10.5831 18.3847 12.4998 18.3847C14.4167 18.3847 14.6436 18.3774 15.4003 18.3429C16.1001 18.311 16.4803 18.1941 16.7331 18.0957C17.0427 17.9763 17.3239 17.7934 17.5585 17.5588C17.7931 17.3242 17.976 17.043 18.0954 16.7334C18.1936 16.4805 18.3105 16.1006 18.3426 15.4008C18.3771 14.6437 18.3844 14.4168 18.3844 12.5003C18.3844 10.5836 18.3771 10.3566 18.3426 9.5998C18.3107 8.9 18.1938 8.51982 18.0954 8.26694ZM12.5 16.1859C10.4643 16.1859 8.81405 14.5358 8.81405 12.5001C8.81405 10.4644 10.4643 8.81436 12.5 8.81436C14.5355 8.81436 16.1857 10.4644 16.1857 12.5001C16.1857 14.5358 14.5355 16.1859 12.5 16.1859ZM16.3315 9.52998C15.8558 9.52998 15.4702 9.14429 15.4702 8.66865C15.4702 8.19302 15.8558 7.80728 16.3315 7.80728C16.8072 7.80728 17.1928 8.19292 17.1928 8.6686C17.1926 9.14429 16.8072 9.52998 16.3315 9.52998Z" fill="white"/>
<path d="M12.5 0C5.59751 0 0 5.59751 0 12.5C0 19.4025 5.59751 25 12.5 25C19.4025 25 25 19.4025 25 12.5C25 5.59751 19.4025 0 12.5 0ZM19.6344 15.4592C19.5998 16.2233 19.4782 16.745 19.3008 17.2016C19.1164 17.6784 18.8344 18.1115 18.4729 18.4729C18.1115 18.8344 17.6784 19.1164 17.2016 19.3008C16.7452 19.4782 16.2233 19.5995 15.4594 19.6344C14.694 19.6693 14.4495 19.6777 12.5002 19.6777C10.5507 19.6777 10.3063 19.6693 9.54072 19.6344C8.77686 19.5995 8.25503 19.4782 7.79854 19.3008C7.31954 19.1206 6.88565 18.8381 6.52715 18.4729C6.16205 18.1144 5.87955 17.6805 5.69937 17.2016C5.52197 16.7452 5.40049 16.2233 5.36577 15.4594C5.33047 14.6938 5.32227 14.4493 5.32227 12.5C5.32227 10.5507 5.33047 10.3062 5.36558 9.54077C5.40024 8.77666 5.52158 8.25503 5.69897 7.79839C5.87922 7.31943 6.16184 6.88558 6.5271 6.52715C6.88555 6.16192 7.31942 5.87935 7.79839 5.69917C8.25503 5.52178 8.77666 5.40049 9.54077 5.36558C10.3062 5.33066 10.5507 5.32227 12.5 5.32227C14.4493 5.32227 14.6938 5.33066 15.4592 5.36572C16.2233 5.40049 16.745 5.52178 17.2016 5.69897C17.6806 5.87926 18.1145 6.16187 18.4731 6.5271C18.8382 6.8856 19.1207 7.31946 19.3008 7.79839C19.4784 8.25503 19.5997 8.77666 19.6346 9.54077C19.6695 10.3062 19.6777 10.5507 19.6777 12.5C19.6777 14.4493 19.6695 14.6938 19.6344 15.4592Z" fill="white"/>
</g>
<defs>
<clipPath id="clip0_73_36">
<rect width="25" height="25" fill="white"/>
</clipPath>
</defs>
</svg>
